<?xml version="1.0" standalone="no"?>
<svg xmlns="http://www.w3.org/2000/svg" viewBox="0 0 136 34" width="136" height="34"><path fill="#ffffff" fill-rule="nonzero" d="M0 22.25L0 2.24L3.04 2.24Q3.61 2.24 4.29 2.29Q4.98 2.34 5.67 2.54Q6.35 2.73 6.99 3.13Q7.63 3.53 8.12 4.21Q8.61 4.90 8.91 5.93Q9.21 6.96 9.21 8.44L9.21 8.44L9.21 9.14Q9.21 10.75 8.94 11.89Q8.66 13.03 8.20 13.81Q7.75 14.59 7.14 15.06Q6.54 15.53 5.89 15.77Q5.24 16.01 4.58 16.08Q3.91 16.16 3.33 16.16L3.33 16.16L3.04 16.16L3.04 22.25L0 22.25ZM3.04 13.93L3.19 13.93Q4.01 13.93 4.57 13.69Q5.13 13.45 5.47 12.94Q5.80 12.43 5.95 11.63Q6.09 10.83 6.09 9.70L6.09 9.70L6.09 7.90Q6.09 7.01 5.96 6.36Q5.84 5.71 5.50 5.29Q5.17 4.86 4.61 4.66Q4.04 4.45 3.19 4.45L3.19 4.45L3.04 4.45L3.04 13.93ZM11.32 22.25L11.32 6.12L13.49 6.12L13.75 7.76Q14.24 6.84 14.88 6.39Q15.52 5.93 16.18 5.93L16.18 5.93Q17.46 5.93 18.07 6.71Q18.68 7.50 18.68 9.07L18.68 9.07Q18.68 9.27 18.65 9.54Q18.62 9.82 18.57 10.12Q18.52 10.42 18.44 10.72Q18.36 11.02 18.28 11.26L18.28 11.26L16.22 11.26L16.22 9.76Q16.22 9.27 16.15 8.95Q16.09 8.64 15.98 8.44Q15.88 8.25 15.74 8.17Q15.60 8.10 15.43 8.10L15.43 8.10Q15.08 8.10 14.78 8.33Q14.48 8.55 14.29 8.96L14.29 8.96L14.29 22.25L11.32 22.25ZM24.45 22.43L24.45 22.43Q23.40 22.43 22.60 22.04Q21.80 21.66 21.25 20.84Q20.70 20.02 20.41 18.73Q20.13 17.45 20.13 15.64L20.13 15.64L20.13 12.60Q20.13 11.06 20.36 9.97Q20.59 8.87 20.96 8.13Q21.33 7.38 21.81 6.95Q22.30 6.52 22.82 6.29Q23.33 6.06 23.84 5.99Q24.35 5.93 24.79 5.93L24.79 5.93Q25.58 5.93 26.32 6.17Q27.06 6.41 27.62 6.99Q28.18 7.57 28.52 8.54Q28.85 9.52 28.85 10.97L28.85 10.97Q28.85 11.46 28.82 11.96Q28.79 12.47 28.75 12.96Q28.70 13.44 28.62 13.90Q28.55 14.36 28.46 14.74L28.46 14.74L23.11 14.74L23.11 16.38Q23.11 17.44 23.19 18.16Q23.27 18.88 23.47 19.32Q23.66 19.76 23.99 19.95Q24.33 20.14 24.83 20.14L24.83 20.14Q25.10 20.14 25.36 20.03Q25.62 19.92 25.81 19.66Q26.00 19.41 26.12 18.98Q26.24 18.55 26.24 17.92L26.24 17.92L26.24 17.41L28.71 17.41L28.71 18.04Q28.71 20.33 27.62 21.38Q26.52 22.43 24.45 22.43ZM23.11 12.75L26.09 12.75Q26.10 12.62 26.11 12.40Q26.12 12.19 26.13 11.95Q26.13 11.72 26.13 11.49Q26.13 11.26 26.13 11.10L26.13 11.10Q26.13 9.50 25.76 8.80Q25.38 8.10 24.64 8.10L24.64 8.10Q24.26 8.10 23.96 8.28Q23.67 8.46 23.48 8.89Q23.30 9.32 23.20 10.02Q23.11 10.72 23.11 11.77L23.11 11.77L23.11 12.75ZM31.36 22.25L31.36 6.12L33.66 6.12L33.91 7.84L33.91 7.85Q34.27 7.30 34.66 6.93Q35.06 6.56 35.49 6.34Q35.92 6.12 36.37 6.02Q36.82 5.93 37.27 5.93L37.27 5.93Q38.21 5.93 38.87 6.39Q39.53 6.84 39.87 7.76L39.87 7.76Q40.22 7.23 40.61 6.88Q41.00 6.53 41.43 6.32Q41.85 6.11 42.28 6.02Q42.71 5.93 43.16 5.93L43.16 5.93Q44.57 5.93 45.33 6.92Q46.10 7.91 46.10 9.89L46.10 9.89L46.10 22.25L43.14 22.25L43.14 10.00Q43.14 9.47 43.05 9.11Q42.97 8.74 42.81 8.52Q42.64 8.30 42.39 8.20Q42.13 8.10 41.77 8.10L41.77 8.10Q41.36 8.10 40.95 8.40Q40.54 8.70 40.20 9.22L40.20 9.22Q40.21 9.33 40.21 9.43Q40.21 9.54 40.21 9.64L40.21 9.64L40.21 22.25L37.24 22.25L37.24 10.00Q37.24 9.47 37.16 9.11Q37.08 8.74 36.91 8.52Q36.75 8.30 36.49 8.20Q36.23 8.10 35.87 8.10L35.87 8.10Q35.47 8.10 35.06 8.39Q34.65 8.68 34.32 9.20L34.32 9.20L34.32 22.25L31.36 22.25ZM50.75 3.81L50.75 3.81Q49.93 3.81 49.46 3.32Q48.98 2.82 48.98 1.88L48.98 1.88Q48.98 1.35 49.11 0.99Q49.23 0.63 49.46 0.42Q49.69 0.20 50.02 0.10Q50.34 0 50.77 0L50.77 0Q51.64 0 52.10 0.45Q52.56 0.89 52.56 1.88L52.56 1.88Q52.56 2.79 52.10 3.30Q51.63 3.81 50.75 3.81ZM49.22 22.25L49.22 6.12L52.18 6.12L52.18 22.25L49.22 22.25ZM59.17 22.43L59.17 22.43Q58.13 22.43 57.32 22.04Q56.52 21.66 55.97 20.84Q55.42 20.02 55.14 18.73Q54.86 17.45 54.86 15.64L54.86 15.64L54.86 12.60Q54.86 11.06 55.08 9.97Q55.31 8.87 55.68 8.13Q56.05 7.38 56.54 6.95Q57.02 6.52 57.54 6.29Q58.05 6.06 58.56 5.99Q59.07 5.93 59.51 5.93L59.51 5.93Q60.30 5.93 61.04 6.17Q61.78 6.41 62.34 6.99Q62.91 7.57 63.24 8.54Q63.57 9.52 63.57 10.97L63.57 10.97Q63.57 11.46 63.54 11.96Q63.52 12.47 63.47 12.96Q63.42 13.44 63.35 13.90Q63.27 14.36 63.19 14.74L63.19 14.74L57.83 14.74L57.83 16.38Q57.83 17.44 57.91 18.16Q58.00 18.88 58.19 19.32Q58.38 19.76 58.72 19.95Q59.05 20.14 59.55 20.14L59.55 20.14Q59.82 20.14 60.08 20.03Q60.34 19.92 60.53 19.66Q60.73 19.41 60.84 18.98Q60.96 18.55 60.96 17.92L60.96 17.92L60.96 17.41L63.43 17.41L63.43 18.04Q63.43 20.33 62.34 21.38Q61.24 22.43 59.17 22.43ZM57.83 12.75L60.81 12.75Q60.82 12.62 60.83 12.40Q60.84 12.19 60.85 11.95Q60.86 11.72 60.86 11.49Q60.86 11.26 60.86 11.10L60.86 11.10Q60.86 9.50 60.48 8.80Q60.11 8.10 59.37 8.10L59.37 8.10Q58.98 8.10 58.69 8.28Q58.39 8.46 58.21 8.89Q58.02 9.32 57.93 10.02Q57.83 10.72 57.83 11.77L57.83 11.77L57.83 12.75ZM66.08 22.25L66.08 6.12L68.25 6.12L68.51 7.76Q69 6.84 69.64 6.39Q70.28 5.93 70.95 5.93L70.95 5.93Q72.22 5.93 72.83 6.71Q73.44 7.50 73.44 9.07L73.44 9.07Q73.44 9.27 73.41 9.54Q73.38 9.82 73.33 10.12Q73.28 10.42 73.20 10.72Q73.13 11.02 73.04 11.26L73.04 11.26L70.98 11.26L70.98 9.76Q70.98 9.27 70.92 8.95Q70.85 8.64 70.75 8.44Q70.64 8.25 70.50 8.17Q70.36 8.10 70.20 8.10L70.20 8.10Q69.84 8.10 69.54 8.33Q69.25 8.55 69.05 8.96L69.05 8.96L69.05 22.25L66.08 22.25ZM79.21 22.43L79.21 22.43Q78.16 22.43 77.36 22.04Q76.56 21.66 76.01 20.84Q75.46 20.02 75.18 18.73Q74.89 17.45 74.89 15.64L74.89 15.64L74.89 12.60Q74.89 11.06 75.12 9.97Q75.35 8.87 75.72 8.13Q76.09 7.38 76.58 6.95Q77.06 6.52 77.58 6.29Q78.09 6.06 78.60 5.99Q79.11 5.93 79.55 5.93L79.55 5.93Q80.34 5.93 81.08 6.17Q81.82 6.41 82.38 6.99Q82.95 7.57 83.28 8.54Q83.61 9.52 83.61 10.97L83.61 10.97Q83.61 11.46 83.58 11.96Q83.55 12.47 83.51 12.96Q83.46 13.44 83.38 13.90Q83.31 14.36 83.23 14.74L83.23 14.74L77.87 14.74L77.87 16.38Q77.87 17.44 77.95 18.16Q78.04 18.88 78.23 19.32Q78.42 19.76 78.76 19.95Q79.09 20.14 79.59 20.14L79.59 20.14Q79.86 20.14 80.12 20.03Q80.38 19.92 80.57 19.66Q80.77 19.41 80.88 18.98Q81 18.55 81 17.92L81 17.92L81 17.41L83.47 17.41L83.47 18.04Q83.47 20.33 82.38 21.38Q81.28 22.43 79.21 22.43ZM77.87 12.75L80.85 12.75Q80.86 12.62 80.87 12.40Q80.88 12.19 80.89 11.95Q80.89 11.72 80.89 11.49Q80.89 11.26 80.89 11.10L80.89 11.10Q80.89 9.50 80.52 8.80Q80.14 8.10 79.41 8.10L79.41 8.10Q79.02 8.10 78.73 8.28Q78.43 8.46 78.25 8.89Q78.06 9.32 77.96 10.02Q77.87 10.72 77.87 11.77L77.87 11.77L77.87 12.75ZM86.07 14.23L86.07 11.85L94.80 11.85L94.80 14.23L86.07 14.23ZM97.99 22.25L97.99 2.24L105.64 2.24L105.64 4.63L101.03 4.63L101.03 10.62L104.65 10.62L104.65 13.01L101.03 13.01L101.03 22.25L97.99 22.25ZM107.48 22.25L107.48 6.12L109.65 6.12L109.91 7.76Q110.40 6.84 111.04 6.39Q111.68 5.93 112.35 5.93L112.35 5.93Q113.63 5.93 114.23 6.71Q114.84 7.50 114.84 9.07L114.84 9.07Q114.84 9.27 114.81 9.54Q114.79 9.82 114.73 10.12Q114.68 10.42 114.60 10.72Q114.53 11.02 114.45 11.26L114.45 11.26L112.38 11.26L112.38 9.76Q112.38 9.27 112.32 8.95Q112.25 8.64 112.15 8.44Q112.04 8.25 111.90 8.17Q111.76 8.10 111.60 8.10L111.60 8.10Q111.25 8.10 110.95 8.33Q110.65 8.55 110.45 8.96L110.45 8.96L110.45 22.25L107.48 22.25ZM120.61 22.43L120.61 22.43Q119.57 22.43 118.76 22.04Q117.96 21.66 117.41 20.84Q116.86 20.02 116.58 18.73Q116.30 17.45 116.30 15.64L116.30 15.64L116.30 12.60Q116.30 11.06 116.53 9.97Q116.75 8.87 117.12 8.13Q117.49 7.38 117.98 6.95Q118.46 6.52 118.98 6.29Q119.50 6.06 120.01 5.99Q120.52 5.93 120.95 5.93L120.95 5.93Q121.75 5.93 122.48 6.17Q123.22 6.41 123.79 6.99Q124.35 7.57 124.68 8.54Q125.02 9.52 125.02 10.97L125.02 10.97Q125.02 11.46 124.99 11.96Q124.96 12.47 124.91 12.96Q124.86 13.44 124.79 13.90Q124.71 14.36 124.63 14.74L124.63 14.74L119.27 14.74L119.27 16.38Q119.27 17.44 119.36 18.16Q119.44 18.88 119.63 19.32Q119.82 19.76 120.16 19.95Q120.49 20.14 121.00 20.14L121.00 20.14Q121.27 20.14 121.52 20.03Q121.78 19.92 121.97 19.66Q122.17 19.41 122.29 18.98Q122.40 18.55 122.40 17.92L122.40 17.92L122.40 17.41L124.88 17.41L124.88 18.04Q124.88 20.33 123.78 21.38Q122.68 22.43 120.61 22.43ZM119.27 12.75L122.25 12.75Q122.26 12.62 122.27 12.40Q122.29 12.19 122.29 11.95Q122.30 11.72 122.30 11.49Q122.30 11.26 122.30 11.10L122.30 11.10Q122.30 9.50 121.92 8.80Q121.55 8.10 120.81 8.10L120.81 8.10Q120.42 8.10 120.13 8.28Q119.84 8.46 119.65 8.89Q119.46 9.32 119.37 10.02Q119.27 10.72 119.27 11.77L119.27 11.77L119.27 12.75ZM131.41 22.43L131.41 22.43Q130.37 22.43 129.57 22.04Q128.77 21.66 128.21 20.84Q127.66 20.02 127.38 18.73Q127.10 17.45 127.10 15.64L127.10 15.64L127.10 12.60Q127.10 11.06 127.33 9.97Q127.56 8.87 127.93 8.13Q128.30 7.38 128.78 6.95Q129.27 6.52 129.79 6.29Q130.30 6.06 130.81 5.99Q131.32 5.93 131.75 5.93L131.75 5.93Q132.55 5.93 133.29 6.17Q134.03 6.41 134.59 6.99Q135.15 7.57 135.49 8.54Q135.82 9.52 135.82 10.97L135.82 10.97Q135.82 11.46 135.79 11.96Q135.76 12.47 135.71 12.96Q135.67 13.44 135.59 13.90Q135.52 14.36 135.43 14.74L135.43 14.74L130.08 14.74L130.08 16.38Q130.08 17.44 130.16 18.16Q130.24 18.88 130.44 19.32Q130.63 19.76 130.96 19.95Q131.30 20.14 131.80 20.14L131.80 20.14Q132.07 20.14 132.33 20.03Q132.59 19.92 132.78 19.66Q132.97 19.41 133.09 18.98Q133.21 18.55 133.21 17.92L133.21 17.92L133.21 17.41L135.68 17.41L135.68 18.04Q135.68 20.33 134.58 21.38Q133.49 22.43 131.41 22.43ZM130.08 12.75L133.05 12.75Q133.07 12.62 133.08 12.40Q133.09 12.19 133.10 11.95Q133.10 11.72 133.10 11.49Q133.10 11.26 133.10 11.10L133.10 11.10Q133.10 9.50 132.73 8.80Q132.35 8.10 131.61 8.10L131.61 8.10Q131.23 8.10 130.93 8.28Q130.64 8.46 130.45 8.89Q130.27 9.32 130.17 10.02Q130.08 10.72 130.08 11.77L130.08 11.77L130.08 12.75Z"></path><line x1="40.74609375" y1="32.4296875" x2="95.07421875" y2="32.4296875" stroke="#ffffff" stroke-linecap="round"></line></svg>